<?xml version="1.0" encoding="iso-8859-1"?>
<!-- Uploaded to: SVG Repo, www.svgrepo.com, Generator: SVG Repo Mixer Tools -->
<svg fill="#000000" height="800px" width="800px" version="1.1" id="Layer_1" xmlns="http://www.w3.org/2000/svg" xmlns:xlink="http://www.w3.org/1999/xlink" 
	 viewBox="0 0 511.999 511.999" xml:space="preserve">
<g>
	<g>
		<path d="M489.735,411.827H473.04V361.74v-161.39h16.695c16.238,0,22.847-20.893,9.707-30.282L265.705,3.114
			c-5.805-4.152-13.609-4.152-19.412,0L12.556,170.068c-13.162,9.405-6.497,30.282,9.707,30.282h16.695v161.39v50.086H22.263
			c-9.223,0-16.695,7.478-16.695,16.695v66.782c0,9.217,7.473,16.695,16.695,16.695h467.473c9.217,0,16.695-7.478,16.695-16.695
			v-66.782C506.431,419.305,498.953,411.827,489.735,411.827z M306.085,200.351h66.782v144.694h-66.782V200.351z M255.999,100.178
			c9.22,0,16.695,7.475,16.695,16.695s-7.475,16.695-16.695,16.695c-9.22,0-16.695-7.475-16.695-16.695
			S246.778,100.178,255.999,100.178z M139.13,200.351h66.782v144.694H139.13V200.351z M439.649,411.827h-367.3v-33.391h367.3
			V411.827z"/>
	</g>
</g>
</svg>