<svg xmlns="http://www.w3.org/2000/svg" width="1040" height="1542"><path fill="#fe5005" fill-rule="evenodd" d="M605 537.2V303.3q0-5.4-2.1-10.5c-1.4-3.3-3.4-6.3-6-8.9-2.5-2.5-5.5-4.6-8.9-5.9-3.3-1.4-6.9-2.1-10.5-2.2-3.6.1-7.2.8-10.5 2.2s-6.3 3.4-8.9 5.9c-2.5 2.6-4.6 5.6-5.9 8.9-1.4 3.4-2.2 6.9-2.2 10.5V578c0 15.6 12.7 28 28 28h26.8c389.9 0 430.5 20.3 406.1 102.7-1.1 4-2.4 7.9-3.8 12.2l-.7 2.5C904 1032.3 627.1 1419 545.3 1529.5c-2.7 3.7-6.2 6.6-10.2 8.6-4 2.1-8.4 3.1-12.9 3.1s-9-1-13-3.1c-4-2-7.5-4.9-10.1-8.6-49.4-66.8-170.3-234.7-280.6-425.2-7.4-17.4-11-58 111.4-58h149.8c8.3 0 15.1 6.8 15.1 15.1v121c0 14.4 10.6 27.7 25 28.9q3 .3 6-.1t5.8-1.5q2.9-1.1 5.4-2.7 2.5-1.7 4.7-3.8 1.9-1.9 3.5-4.1 1.5-2.3 2.6-4.8 1-2.5 1.5-5.1.5-2.7.5-5.4v-164.1c0-3.8-.8-7.4-2.2-10.9-1.5-3.4-3.6-6.5-6.2-9.2-2.6-2.6-5.7-4.7-9.2-6.1-3.4-1.5-7.1-2.2-10.8-2.2H218.8C166 991.3 134 946.1 113 905 47.2 766.9 0 630.6 0 523.2 0 248.1 219.2.5 521.8.5c269.5 0 473.6 196.1 515.1 433.3.2 2 1.8 11.1 2 12.9 10.8 116.4-292.7 103.1-420.3 103.8-1.8 0-3.6-.4-5.2-1-1.7-.7-3.2-1.7-4.4-3-1.3-1.2-2.3-2.7-3-4.4-.6-1.6-1-3.4-1-5.2z"/></svg>